<svg xmlns="http://www.w3.org/2000/svg" xmlns:xlink="http://www.w3.org/1999/xlink" version="1.1" x="0px" y="0px" viewBox="0 0 54 67.5" enable-background="new 0 0 54 54" xml:space="preserve"><g><path d="M41.82,0H12.18C5.46,0,0,5.46,0,12.18v29.65C0,48.54,5.46,54,12.18,54h29.65C48.54,54,54,48.54,54,41.82V12.18   C54,5.46,48.54,0,41.82,0z M52,41.82C52,47.44,47.44,52,41.82,52H12.18C6.56,52,2,47.44,2,41.82V12.18C2,6.56,6.56,2,12.18,2h29.65   C47.44,2,52,6.56,52,12.18V41.82z"/><path d="M16.6,12L8.36,40h3.12l2.64-9.04h8.32L25.2,40h3.24l-8.52-28H16.6z M14.88,28l3.36-11.36L21.72,28H14.88z"/><path d="M36.96,19.6c-2.21,0-3.99,0.6-5.34,1.8c-1.35,1.2-2.02,2.88-2.02,5.04v8.2c0,3.89,2.32,5.84,6.96,5.84   c2.24,0,4.39-0.63,6.44-1.88l-1.08-2.36c-1.97,1.09-3.79,1.64-5.44,1.64c-2.67,0-4-1.13-4-3.4V32.4L44,31.8v-5.48   c0-2.11-0.62-3.75-1.86-4.94C40.9,20.19,39.17,19.6,36.96,19.6z M41.08,29.24l-8.6,0.44v-3.2c0-1.39,0.41-2.44,1.22-3.16   c0.81-0.72,1.81-1.08,2.98-1.08c1.17,0,2.2,0.3,3.08,0.9c0.88,0.6,1.32,1.61,1.32,3.02V29.24z"/></g><text x="0" y="69" fill="#000000" font-size="5px" font-weight="bold" font-family="'Helvetica Neue', Helvetica, Arial-Unicode, Arial, Sans-serif">Created by Ben Davis</text><text x="0" y="74" fill="#000000" font-size="5px" font-weight="bold" font-family="'Helvetica Neue', Helvetica, Arial-Unicode, Arial, Sans-serif">from the Noun Project</text></svg>