<?xml version="1.0" encoding="utf-8"?>
<!-- Generator: Adobe Illustrator 17.0.0, SVG Export Plug-In . SVG Version: 6.00 Build 0)  -->
<!DOCTYPE svg PUBLIC "-//W3C//DTD SVG 1.1//EN" "http://www.w3.org/Graphics/SVG/1.1/DTD/svg11.dtd">
<svg version="1.1" id="Layer_1" xmlns="http://www.w3.org/2000/svg" xmlns:xlink="http://www.w3.org/1999/xlink" x="0px" y="0px"
	 width="60px" height="60px" viewBox="0 0 640 572.5" enable-background="new 0 0 640 572.5" xml:space="preserve">
<title>Rounded</title>
<path fill="#FFFFFF" d="M410.327,133.818H233.018c-0.836,0-1.673,0.836-1.673,1.673v200.727H412V135.491
	C412,134.655,411.164,133.818,410.327,133.818z"/>
<path fill="#FFFFFF" d="M231.345,416.509c0,0.836,0.836,1.673,1.673,1.673h177.309c0.836,0,1.673-0.836,1.673-1.673v-63.564H231.345
	V416.509z M321.673,372.182c7.527,0,14.218,5.855,14.218,13.382c0,7.527-6.691,13.382-14.218,13.382s-14.218-5.855-14.218-13.382
	S314.145,372.182,321.673,372.182z"/>
<path fill="#FFFFFF" d="M319.164,8.364C319.164,8.364,318.327,8.364,319.164,8.364C171.127,9.2,51.527,129.636,52.364,277.673
	c0.836,147.2,121.273,266.8,269.309,265.964c147.2-0.836,266.8-121.273,265.964-268.473C586.8,127.127,466.364,7.527,319.164,8.364z
	 M428.727,416.509c0,10.036-8.364,18.4-18.4,18.4H233.018c-10.036,0-18.4-8.364-18.4-18.4V135.491c0-10.036,8.364-18.4,18.4-18.4
	h177.309c10.036,0,18.4,8.364,18.4,18.4C428.727,135.491,428.727,416.509,428.727,416.509z"/>
</svg>
