<svg xmlns="http://www.w3.org/2000/svg" xmlns:xlink="http://www.w3.org/1999/xlink" version="1.1" x="0px" y="0px" viewBox="0 0 66 82.5" style="enable-background:new 0 0 66 66;" xml:space="preserve"><title>Rounded</title><path d="M43.8,16H22.6c-0.1,0-0.2,0.1-0.2,0.2v24H44v-24C44,16.1,43.9,16,43.8,16z"/><path d="M22.4,49.8c0,0.1,0.1,0.2,0.2,0.2h21.2c0.1,0,0.2-0.1,0.2-0.2v-7.6H22.4V49.8z M33.2,44.5c0.9,0,1.7,0.7,1.7,1.6  c0,0.9-0.8,1.6-1.7,1.6s-1.7-0.7-1.7-1.6S32.3,44.5,33.2,44.5z"/><path d="M32.9,1C32.9,1,32.8,1,32.9,1C15.2,1.1,0.9,15.5,1,33.2C1.1,50.8,15.5,65.1,33.2,65C50.8,64.9,65.1,50.5,65,32.9  C64.9,15.2,50.5,0.9,32.9,1z M46,49.8c0,1.2-1,2.2-2.2,2.2H22.6c-1.2,0-2.2-1-2.2-2.2V16.2c0-1.2,1-2.2,2.2-2.2h21.2  c1.2,0,2.2,1,2.2,2.2C46,16.2,46,49.8,46,49.8z"/><text x="0" y="81" fill="#000000" font-size="5px" font-weight="bold" font-family="'Helvetica Neue', Helvetica, Arial-Unicode, Arial, Sans-serif">Created by Xicons.co</text><text x="0" y="86" fill="#000000" font-size="5px" font-weight="bold" font-family="'Helvetica Neue', Helvetica, Arial-Unicode, Arial, Sans-serif">from the Noun Project</text></svg>