<?xml version="1.0" encoding="utf-8"?>
<!-- Generator: Adobe Illustrator 17.0.0, SVG Export Plug-In . SVG Version: 6.00 Build 0)  -->
<!DOCTYPE svg PUBLIC "-//W3C//DTD SVG 1.1//EN" "http://www.w3.org/Graphics/SVG/1.1/DTD/svg11.dtd">
<svg version="1.1" id="Layer_1" xmlns="http://www.w3.org/2000/svg" xmlns:xlink="http://www.w3.org/1999/xlink" x="0px" y="0px"
	 width="200px" height="200px" viewBox="0 0 200 200" enable-background="new 0 0 200 200" xml:space="preserve">
<path fill="#FFFFFF" d="M36.638,37.793L47.4,156.173l53.808,10.76l53.807-10.76l10.762-118.379
	C165.777,37.793,36.638,37.793,36.638,37.793z M145.028,147.197l-43.82,8.759l-43.82-8.759l-8.971-98.642h105.572L145.028,147.197z"
	/>
<polygon fill="#FFFFFF" points="64.61,107.961 127.001,107.961 125.046,129.463 101.21,134.225 77.369,129.463 76.398,118.722 
	65.589,118.722 67.38,138.437 101.21,145.195 135.04,138.437 138.786,97.197 87.884,97.197 141.231,70.294 142.207,59.532 
	60.208,59.532 61.185,70.294 117.332,70.294 63.986,97.197 "/>
</svg>
