<svg xmlns="http://www.w3.org/2000/svg" xmlns:xlink="http://www.w3.org/1999/xlink" version="1.1" x="0px" y="0px" viewBox="0 0 66 82.5" style="enable-background:new 0 0 66 66;" xml:space="preserve"><title>Rounded</title><polygon points="18,23.8 18,42.4 25.7,32 "/><path d="M29.4,33c2.1,2,5.4,1.9,7.4-0.2L46.9,22H19.1l10.1,10.9C29.2,32.9,29.3,33,29.4,33z"/><path d="M38.3,34.2c-1.3,1.4-3.2,2.2-5.1,2.3c-0.1,0-0.1,0-0.2,0c-1.9,0-3.7-0.7-5-2c-0.1-0.1-0.2-0.2-0.2-0.2L27,33.5l-7.9,10.7  h27.5L39,33.4L38.3,34.2z"/><polygon points="48,42.6 48,23.8 40.5,31.8 "/><path d="M33,1C15.3,1,1,15.3,1,33s14.3,32,32,32s32-14.3,32-32S50.7,1,33,1z M50,43.7c0,1.4-1.1,2.5-2.5,2.5h-29  c-1.4,0-2.5-1.1-2.5-2.5V22.5c0-1.4,1.1-2.5,2.5-2.5h29c1.4,0,2.5,1.1,2.5,2.5V43.7z"/><text x="0" y="81" fill="#000000" font-size="5px" font-weight="bold" font-family="'Helvetica Neue', Helvetica, Arial-Unicode, Arial, Sans-serif">Created by Xicons.co</text><text x="0" y="86" fill="#000000" font-size="5px" font-weight="bold" font-family="'Helvetica Neue', Helvetica, Arial-Unicode, Arial, Sans-serif">from the Noun Project</text></svg>