<?xml version="1.0" encoding="utf-8"?>
<!-- Generator: Adobe Illustrator 17.0.0, SVG Export Plug-In . SVG Version: 6.00 Build 0)  -->
<!DOCTYPE svg PUBLIC "-//W3C//DTD SVG 1.1//EN" "http://www.w3.org/Graphics/SVG/1.1/DTD/svg11.dtd">
<svg version="1.1" id="Layer_1" xmlns="http://www.w3.org/2000/svg" xmlns:xlink="http://www.w3.org/1999/xlink" x="0px" y="0px"
	 width="60px" height="60px" viewBox="0 0 640 549.5" enable-background="new 0 0 640 549.5" xml:space="preserve">
<title>Rounded</title>
<polygon fill="#FFFFFF" points="194.545,199.055 194.545,354.618 258.945,267.636 "/>
<path fill="#FFFFFF" d="M289.891,276c17.564,16.727,45.164,15.891,61.891-1.673L436.255,184H203.745l84.473,91.164
	C288.218,275.164,289.055,276,289.891,276z"/>
<path fill="#FFFFFF" d="M364.327,286.036c-10.873,11.709-26.764,18.4-42.655,19.236c-0.836,0-0.836,0-1.673,0
	c-15.891,0-30.945-5.855-41.818-16.727c-0.836-0.836-1.673-1.673-1.673-1.673l-6.691-6.691l-66.073,89.491h230l-63.564-90.327
	L364.327,286.036z"/>
<polygon fill="#FFFFFF" points="445.455,356.291 445.455,199.055 382.727,265.964 "/>
<path fill="#FFFFFF" d="M320,8.364C171.964,8.364,52.364,127.964,52.364,276S171.964,543.636,320,543.636
	S587.636,424.036,587.636,276S468.036,8.364,320,8.364z M462.182,365.491c0,11.709-9.2,20.909-20.909,20.909H198.727
	c-11.709,0-20.909-9.2-20.909-20.909V188.182c0-11.709,9.2-20.909,20.909-20.909h242.545c11.709,0,20.909,9.2,20.909,20.909V365.491
	z"/>
</svg>
