<?xml version="1.0" encoding="utf-8"?>
<!-- Generator: Adobe Illustrator 17.0.0, SVG Export Plug-In . SVG Version: 6.00 Build 0)  -->
<!DOCTYPE svg PUBLIC "-//W3C//DTD SVG 1.1//EN" "http://www.w3.org/Graphics/SVG/1.1/DTD/svg11.dtd">
<svg version="1.1" id="Layer_1" xmlns="http://www.w3.org/2000/svg" xmlns:xlink="http://www.w3.org/1999/xlink" x="0px" y="0px"
	 width="200px" height="200px" viewBox="0 0 200 200" enable-background="new 0 0 200 200" xml:space="preserve">
<path fill="#FFFFFF" d="M39.07,40.892l10.087,110.951l50.432,10.087l50.432-10.087l10.087-110.951
	C160.108,40.892,39.07,40.892,39.07,40.892z M140.661,143.432l-41.072,8.211l-41.072-8.211L50.11,50.979h98.949L140.661,143.432z"/>
<polygon fill="#FFFFFF" points="65.288,106.657 123.765,106.657 121.932,126.81 99.591,131.273 77.246,126.81 76.331,116.744 
	66.204,116.744 67.884,135.223 99.591,141.555 131.299,135.223 134.81,96.572 74.499,96.572 72.208,71.354 137.101,71.354 
	138.017,61.267 61.162,61.267 "/>
</svg>
