<svg xmlns="http://www.w3.org/2000/svg" xmlns:xlink="http://www.w3.org/1999/xlink" version="1.1" x="0px" y="0px" viewBox="0 0 54 67.5" enable-background="new 0 0 54 54" xml:space="preserve"><g><path d="M41.82,0H12.18C5.46,0,0,5.46,0,12.18v29.65C0,48.54,5.46,54,12.18,54h29.65C48.54,54,54,48.54,54,41.82V12.18   C54,5.46,48.54,0,41.82,0z M52,41.82C52,47.44,47.44,52,41.82,52H12.18C6.56,52,2,47.44,2,41.82V12.18C2,6.56,6.56,2,12.18,2h29.65   C47.44,2,52,6.56,52,12.18V41.82z"/><polygon points="13.56,14.64 16.2,14.72 16.2,40 19.08,40 19.08,12 13.56,12  "/><path d="M37.16,20.76c-1.15-0.75-2.55-1.12-4.22-1.12s-3.09,0.25-4.26,0.76c-2.27,1.04-3.4,2.96-3.4,5.76v7.56   c0,2.64,1.04,4.49,3.12,5.56c1.57,0.8,3.33,1.2,5.28,1.2c1.95,0,4.07-0.16,6.36-0.48V12h-2.88V20.76z M37.16,37.48   C35.8,37.69,34.41,37.8,33,37.8c-1.41,0-2.6-0.36-3.56-1.08c-0.88-0.69-1.32-1.65-1.32-2.88v-7.12c0-1.25,0.35-2.29,1.06-3.1   c0.71-0.81,1.85-1.22,3.42-1.22c1.65,0,3.17,0.37,4.56,1.12V37.48z"/></g><text x="0" y="69" fill="#000000" font-size="5px" font-weight="bold" font-family="'Helvetica Neue', Helvetica, Arial-Unicode, Arial, Sans-serif">Created by Ben Davis</text><text x="0" y="74" fill="#000000" font-size="5px" font-weight="bold" font-family="'Helvetica Neue', Helvetica, Arial-Unicode, Arial, Sans-serif">from the Noun Project</text></svg>