<?xml version="1.0" encoding="utf-8"?>
<!-- Generator: Adobe Illustrator 17.0.0, SVG Export Plug-In . SVG Version: 6.00 Build 0)  -->
<!DOCTYPE svg PUBLIC "-//W3C//DTD SVG 1.1//EN" "http://www.w3.org/Graphics/SVG/1.1/DTD/svg11.dtd">
<svg version="1.1" id="Layer_1" xmlns="http://www.w3.org/2000/svg" xmlns:xlink="http://www.w3.org/1999/xlink" x="0px" y="0px"
	 width="200px" height="200px" viewBox="860 0 200 200" enable-background="new 860 0 200 200" xml:space="preserve">
<g>
	<g>
		<path fill="#FFFFFF" d="M1024.163,126.865l-0.613,1.587c-10.424,20.299-28.894,32.754-55.242,33.303
			c-12.316,0.254-24.052-2.907-31.718-6.343c-16.546-7.433-30.46-21.219-38.061-35.946c-10.9-21.113-12.867-50.484,9.8-72.421
			c0.349,0-2.749,4.758-2.4,4.758l-0.624,2.03c-16.333,51.137,33.993,94.961,82.911,89.949
			C999.972,142.576,1014.964,136.138,1024.163,126.865z"/>
		<path fill="#FFFFFF" d="M1026.097,63.029c-1.913,4.388-12.93,12.676-17.794,13.712c-19.263,4.102-31.602-5.033-38.061-15.425
			c-0.963-1.554-2.739-5.794-3.055-6.872c-2.506-8.522-1.354-21.409,6.122-28.081c-2.252,6.343-2.579,13.712-1.396,18.502
			c0.719,2.897,2.907,7.951,5.096,11.133c3.987,5.794,6.512,7.2,11.63,10.276c2.304,1.385,4.779,2.496,5.846,2.801
			C999.337,70.504,1009.582,74.268,1026.097,63.029z"/>
		<path fill="#FFFFFF" d="M994.56,105.72c12.306,0.085,25.163-5.667,32.775-13.745c-6.661,16.906-25.945,27.775-51.805,24.316
			c-21.654-2.896-42.281-24.685-44.406-46.518c-1.554-15.891,3.987-25.375,13.11-36.876c-3.172,6.016-4.355,10.657-4.652,13.618
			C936.115,80.886,967.039,105.541,994.56,105.72z"/>
	</g>
</g>
<path d="M2633.935,1451.387"/>
</svg>
