<?xml version="1.0" encoding="utf-8"?>
<!-- Generator: Adobe Illustrator 17.0.0, SVG Export Plug-In . SVG Version: 6.00 Build 0)  -->
<!DOCTYPE svg PUBLIC "-//W3C//DTD SVG 1.1//EN" "http://www.w3.org/Graphics/SVG/1.1/DTD/svg11.dtd">
<svg version="1.1" id="Layer_1" xmlns="http://www.w3.org/2000/svg" xmlns:xlink="http://www.w3.org/1999/xlink" x="0px" y="0px"
	 width="200px" height="200px" viewBox="0 0 200 200" enable-background="new 0 0 200 200" xml:space="preserve">
<title>30 -Javascript- (Outline)</title>
<desc>Created with Sketch.</desc>
<g>
	<g transform="translate(-1200.000000, -570.000000)">
		<g transform="translate(1200.000000, 570.000000)">
			<path fill="#FFFFFF" d="M41.827,158.26h115.677V42.582H41.827V158.26z M159.569,162.391H39.761c-1.142,0-2.066-0.925-2.066-2.066
				V40.517c0-1.14,0.924-2.066,2.066-2.066H159.57c1.142,0,2.066,0.925,2.066,2.066v119.809
				C161.635,161.466,160.712,162.391,159.569,162.391L159.569,162.391z"/>
			<path fill="#FFFFFF" d="M132.716,152.063c-10.252,0-18.591-8.341-18.591-18.591c0-1.14,0.924-2.066,2.066-2.066
				s2.066,0.925,2.066,2.066c0,7.973,6.488,14.46,14.46,14.46s14.46-6.486,14.46-14.46c0-7.973-6.488-14.46-14.46-14.46
				c-10.252,0-18.591-8.341-18.591-18.591s8.339-18.591,18.591-18.591s18.591,8.341,18.591,18.591c0,1.14-0.924,2.066-2.066,2.066
				c-1.142,0-2.066-0.925-2.066-2.066c0-7.973-6.488-14.46-14.46-14.46s-14.46,6.486-14.46,14.46s6.488,14.46,14.46,14.46
				c10.252,0,18.591,8.341,18.591,18.591C151.307,143.721,142.968,152.063,132.716,152.063"/>
			<path fill="#FFFFFF" d="M89.337,152.063c-10.252,0-18.591-8.341-18.591-18.591c0-1.14,0.924-2.066,2.066-2.066
				s2.066,0.925,2.066,2.066c0,7.973,6.488,14.46,14.46,14.46s14.46-6.486,14.46-14.46V83.896c0-1.14,0.924-2.066,2.066-2.066
				s2.066,0.925,2.066,2.066v49.576C107.928,143.722,99.589,152.063,89.337,152.063"/>
		</g>
	</g>
</g>
</svg>
