<svg xmlns="http://www.w3.org/2000/svg" xmlns:xlink="http://www.w3.org/1999/xlink" version="1.1" x="0px" y="0px" viewBox="0 0 54 67.5" enable-background="new 0 0 54 54" xml:space="preserve"><g><path d="M41.82,0H12.18C5.46,0,0,5.46,0,12.18v29.65C0,48.54,5.46,54,12.18,54h29.65C48.54,54,54,48.54,54,41.82V12.18   C54,5.46,48.54,0,41.82,0z M52,41.82C52,47.44,47.44,52,41.82,52H12.18C6.56,52,2,47.44,2,41.82V12.18C2,6.56,6.56,2,12.18,2h29.65   C47.44,2,52,6.56,52,12.18V41.82z"/><path d="M23.08,12h-9.64v28h2.88v-9.2h7.04c1.36,0,2.53-0.25,3.52-0.74c0.99-0.49,1.72-1.07,2.2-1.72   c0.48-0.65,0.86-1.49,1.14-2.52s0.45-1.88,0.5-2.56c0.05-0.68,0.08-1.49,0.08-2.42c0-2.64-0.63-4.77-1.9-6.4   C27.63,12.81,25.69,12,23.08,12z M27.9,22.6c-0.01,0.4-0.11,1-0.28,1.8c-0.17,0.8-0.41,1.41-0.72,1.84s-0.79,0.83-1.46,1.2   C24.77,27.81,23.96,28,23,28h-6.68V14.8h6.52c3.39,0,5.08,2.03,5.08,6.08C27.92,21.63,27.91,22.2,27.9,22.6z"/><path d="M37.44,21v-1.04h-2.8V40h2.88V25.16c0-0.88,0.39-1.58,1.18-2.1c0.79-0.52,1.68-0.78,2.68-0.78s1.97,0.15,2.9,0.44L45,20   c-1.09-0.21-2.09-0.32-3-0.32C40.16,19.68,38.64,20.12,37.44,21z"/></g><text x="0" y="69" fill="#000000" font-size="5px" font-weight="bold" font-family="'Helvetica Neue', Helvetica, Arial-Unicode, Arial, Sans-serif">Created by Ben Davis</text><text x="0" y="74" fill="#000000" font-size="5px" font-weight="bold" font-family="'Helvetica Neue', Helvetica, Arial-Unicode, Arial, Sans-serif">from the Noun Project</text></svg>