<?xml version="1.0" encoding="utf-8"?>
<!-- Generator: Adobe Illustrator 17.0.0, SVG Export Plug-In . SVG Version: 6.00 Build 0)  -->
<!DOCTYPE svg PUBLIC "-//W3C//DTD SVG 1.1//EN" "http://www.w3.org/Graphics/SVG/1.1/DTD/svg11.dtd">
<svg version="1.1" id="Layer_1" xmlns="http://www.w3.org/2000/svg" xmlns:xlink="http://www.w3.org/1999/xlink" x="0px" y="0px"
	 width="200px" height="200px" viewBox="0 0 200 200" enable-background="new 0 0 200 200" xml:space="preserve">
<g transform="translate(0.000000,1200.000000) scale(0.100000,-0.100000)">
	<path fill="#FFFFFF" d="M663.856,11500.138c-7.229-2.326-16.946-12.71-18.868-20.364c-1.205-4.66-1.672-34.309-1.672-106.261
		v-99.971l-164.617-0.266l-164.625-0.391l-5.892-4.108c-3.685-2.599-7.376-6.847-9.709-11.464l-3.823-7.257v-324.082
		c0-242.052,0.411-325.475,1.643-329.445c2.054-7.243,9.437-15.447,16.409-18.456c5.607-2.466,14.083-2.591,206.595-2.995
		l200.605-0.265v-18.471c0-20.908,2.083-28.025,10.162-34.183c10.113-7.646,7.765-7.493,94.763-7.493
		c54.547,0,82.183,0.515,85.833,1.504c7.243,2.006,17.67,12.438,19.683,19.683c1.114,3.844,1.504,44.84,1.504,136.467v130.866
		h60.865h60.871v-83.424v-83.423l-30.352-0.265l-30.518-0.418l-0.389-14.5l-0.377-14.459l46.19-0.85
		c59.437-1.239,198.383-1.239,257.89,0l46.205,0.85l-0.377,14.459l-0.432,14.5l-30.352,0.418l-30.477,0.265v83.423v83.424h206.838
		c147.039,0,208.44,0.389,212.257,1.504c7.243,2.02,17.622,12.439,19.696,19.669c2.201,7.828,2.201,648.582,0,656.354
		c-2.075,7.243-12.451,17.669-19.696,19.689C1691.881,11502.617,670.702,11502.353,663.856,11500.138z M1690.767,11152.578v-319.347
		h-379.438H931.843v9.71c0,5.474-0.655,12.188-1.505,15.057c-2.146,6.84-8.345,14.334-15.308,18.054
		c-5.607,2.854-7.11,2.994-55.209,3.44l-49.658,0.403v185.289c0,200.724,0.384,189.134-7.494,198.509
		c-7.828,9.312-6.192,9.062-70.455,9.849l-58.121,0.717l-0.397,98.856l-0.265,98.739h508.66h508.674v-319.276H1690.767z
		 M780.09,11061.717v-181.557l-18.743-0.668c-20.656-0.711-26.006-2.326-33.5-10.294c-8.211-8.595-7.946-4.499-7.946-115.921
		v-101.88H522.32H324.738v296.028v296.062h227.669H780.09V11061.717L780.09,11061.717z M901.79,10711.545v-136.731h-75.923h-75.853
		v136.731v136.731h75.853h75.923V10711.545L901.79,10711.545z M1250.472,10719.763v-83.423h-83.423h-83.41v83.423v83.424h83.41
		h83.423V10719.763z M560.882,10622.132c3.001-2.591,3.843-4.359,3.843-9.055c0-13.65-18.052-17.202-23.401-4.639
		c-1.63,3.984-1.63,5.35,0,9.334c1.107,2.576,3.002,5.307,4.499,6.128C550.073,10626.366,556.773,10625.656,560.882,10622.132z
		 M834.665,10560.452c8.999-8.888-0.982-23.805-13.157-19.71c-7.243,2.34-10.495,10.684-6.714,17.537
		C818.897,10565.773,828.355,10566.734,834.665,10560.452z"/>
</g>
</svg>
