<svg xmlns="http://www.w3.org/2000/svg" xmlns:xlink="http://www.w3.org/1999/xlink" version="1.1" x="0px" y="0px" viewBox="0 0 65 81.25" enable-background="new 0 0 65 65" xml:space="preserve"><g><rect x="4.5" y="44.4" width="1.5" height="1.5"/><rect x="7.7" y="44.4" width="1.5" height="1.5"/><rect x="11.5" y="44.4" width="15.4" height="1.5"/><rect x="12.9" y="50" width="11.9" height="1.5"/><rect x="28.8" y="44.4" width="9" height="1.5"/><rect x="23.5" y="38.8" width="19.6" height="1.5"/><rect x="4.5" y="50" width="6.5" height="1.5"/><rect x="4.5" y="38.8" width="7.3" height="1.5"/><rect x="17" y="38.8" width="1.5" height="1.5"/><rect x="13.8" y="38.8" width="1.5" height="1.5"/><rect x="20.2" y="38.8" width="1.5" height="1.5"/><rect x="29.9" y="50" width="1.5" height="1.5"/><rect x="36.3" y="50" width="1.5" height="1.5"/><rect x="33.1" y="50" width="1.5" height="1.5"/><rect x="26.7" y="50" width="1.5" height="1.5"/><polygon points="56.3,43.7 59.4,46.6 56.3,49.5 57.3,50.6 61.6,46.6 57.3,42.6  "/><polygon points="45.9,42.6 41.6,46.6 45.9,50.6 46.9,49.5 43.8,46.6 46.9,43.7  "/><rect x="50.8" y="38.9" transform="matrix(-0.8964 -0.4433 0.4433 -0.8964 77.1559 111.2208)" width="1.5" height="15.5"/><path d="M35.4,19.8H4.3v14.6h31.1V19.8z M33.9,32.9H5.8V21.3h28.1V32.9z"/><path d="M60.7,19.8H38.3v14.6h22.3V19.8z M48.1,27.1l-8.3,5.2V21.9L48.1,27.1z M41.7,21.3h15.6l-7.8,4.9L41.7,21.3z M49.5,28   l7.8,4.9H41.7L49.5,28z M50.9,27.1l8.3-5.2v10.4L50.9,27.1z"/><path d="M61.5,6.4h-58c-2.1,0-3.8,1.7-3.8,3.8v48.4h65.5V10.2C65.3,8.1,63.6,6.4,61.5,6.4z M3.5,7.9h58c1.2,0,2.3,1,2.3,2.3v4.8   H1.3v-4.8C1.3,8.9,2.3,7.9,3.5,7.9z M1.3,57.1V16.4h62.5v40.6H1.3z"/><rect x="54.6" y="10.8" width="1.5" height="1.5"/><rect x="50.8" y="10.8" width="1.5" height="1.5"/><rect x="58.4" y="10.8" width="1.5" height="1.5"/><rect x="4.2" y="10.8" width="42.2" height="1.5"/></g><text x="0" y="80" fill="#000000" font-size="5px" font-weight="bold" font-family="'Helvetica Neue', Helvetica, Arial-Unicode, Arial, Sans-serif">Created by Creative Stall</text><text x="0" y="85" fill="#000000" font-size="5px" font-weight="bold" font-family="'Helvetica Neue', Helvetica, Arial-Unicode, Arial, Sans-serif">from the Noun Project</text></svg>