<svg xmlns="http://www.w3.org/2000/svg" viewBox="0 0 100 125" x="0px" y="0px"><defs><style>.a{fill:#231f20;}</style></defs><title>100icons20172</title><path class="a" d="M91,84.49H9a.85.85,0,0,1-.85-.85V16.36A.85.85,0,0,1,9,15.51H91a.85.85,0,0,1,.85.85V83.64A.85.85,0,0,1,91,84.49ZM9.85,82.79h80.3V17.21H9.85Z"/><path class="a" d="M36.41,54.19H16.72a.85.85,0,0,1-.85-.85V28.09a.85.85,0,0,1,.85-.85H36.41a.85.85,0,0,1,.85.85V53.34A.85.85,0,0,1,36.41,54.19Zm-18.83-1.7h18V28.94h-18Z"/><path class="a" d="M59.79,64.29H40.1a.85.85,0,0,1-.85-.85V28.09a.85.85,0,0,1,.85-.85H59.79a.85.85,0,0,1,.85.85V63.44A.85.85,0,0,1,59.79,64.29ZM41,62.59h18V28.94H41Z"/><path class="a" d="M83.1,45.51H63.41a.85.85,0,0,1-.85-.85V28.09a.85.85,0,0,1,.85-.85H83.1a.85.85,0,0,1,.85.85V44.66A.85.85,0,0,1,83.1,45.51Zm-18.83-1.7h18V28.94h-18Z"/><path class="a" d="M36.41,75.17H16.72a.85.85,0,0,1-.85-.85V57.75a.85.85,0,0,1,.85-.85H36.41a.85.85,0,0,1,.85.85V74.32A.85.85,0,0,1,36.41,75.17Zm-18.83-1.7h18V58.6h-18Z"/><path class="a" d="M36.41,84.49H16.72a.85.85,0,0,1-.85-.85V78.73a.85.85,0,0,1,.85-.85H36.41a.85.85,0,0,1,.85.85v4.92A.85.85,0,0,1,36.41,84.49Zm-18.83-1.7h18V79.58h-18Z"/><path class="a" d="M59.79,84.49H40.1a.85.85,0,0,1-.85-.85V67.07a.85.85,0,0,1,.85-.85H59.79a.85.85,0,0,1,.85.85V83.64A.85.85,0,0,1,59.79,84.49ZM41,82.79h18V67.92H41Z"/><path class="a" d="M83.1,65.87H63.41a.85.85,0,0,1-.85-.85V48.45a.85.85,0,0,1,.85-.85H83.1a.85.85,0,0,1,.85.85V65A.85.85,0,0,1,83.1,65.87Zm-18.83-1.7h18V49.3h-18Z"/><path class="a" d="M83.1,84.49H63.41a.85.85,0,0,1-.85-.85V68.81a.85.85,0,0,1,.85-.85H83.1a.85.85,0,0,1,.85.85V83.64A.85.85,0,0,1,83.1,84.49Zm-18.83-1.7h18V69.67h-18Z"/><path class="a" d="M91,23.23H9a.85.85,0,0,1,0-1.7H91a.85.85,0,1,1,0,1.7Z"/><text x="0" y="115" fill="#000000" font-size="5px" font-weight="bold" font-family="'Helvetica Neue', Helvetica, Arial-Unicode, Arial, Sans-serif">Created by Becca O'Shea</text><text x="0" y="120" fill="#000000" font-size="5px" font-weight="bold" font-family="'Helvetica Neue', Helvetica, Arial-Unicode, Arial, Sans-serif">from the Noun Project</text></svg>