<?xml version="1.0" encoding="utf-8"?>
<!-- Generator: Adobe Illustrator 17.0.0, SVG Export Plug-In . SVG Version: 6.00 Build 0)  -->
<!DOCTYPE svg PUBLIC "-//W3C//DTD SVG 1.1//EN" "http://www.w3.org/Graphics/SVG/1.1/DTD/svg11.dtd">
<svg version="1.1" id="Layer_1" xmlns="http://www.w3.org/2000/svg" xmlns:xlink="http://www.w3.org/1999/xlink" x="0px" y="0px"
	 width="200px" height="200px" viewBox="0 0 200 200" enable-background="new 0 0 200 200" xml:space="preserve">
<g id="surface1">
	<path fill="#FFFFFF" d="M99.751,28.202c-40.861,0-74.13,33.269-74.13,74.13s33.269,74.13,74.13,74.13s74.13-33.269,74.13-74.13
		S140.611,28.202,99.751,28.202z M99.751,31.596c38.985,0,70.736,31.751,70.736,70.736s-31.751,70.736-70.736,70.736
		s-70.736-31.751-70.736-70.736S60.765,31.596,99.751,31.596z M99.751,38.741c-22.217,0-41.687,11.32-53.052,28.58
		c1.496,0.045,2.903,0.179,4.108,0.179c6.654,0,16.97-0.893,16.97-0.893c3.416-0.201,3.773,4.957,0.357,5.359
		c0,0-3.506,0.335-7.323,0.536l23.222,68.771l13.933-41.62L87.961,72.501c-3.416-0.201-6.609-0.536-6.609-0.536
		c-3.438-0.201-3.059-5.56,0.357-5.359c0,0,10.539,0.893,16.791,0.893c6.654,0,16.97-0.893,16.97-0.893
		c3.438-0.201,3.773,4.957,0.357,5.359c0,0-3.506,0.335-7.323,0.536l23.043,68.235l6.252-21.078
		c3.215-8.262,4.823-15.094,4.823-20.542c0-7.86-2.746-13.285-5.18-17.505c-3.215-5.248-6.252-9.757-6.252-15.005
		c0-5.828,4.466-11.253,10.718-11.253c0.29,0,0.602-0.022,0.893,0C131.479,44.993,116.296,38.741,99.751,38.741z M155.482,71.787
		c0.29,2.032,0.536,4.265,0.536,6.609c0,6.452-1.206,13.62-4.823,22.686l-19.47,56.089c18.89-11.03,31.617-31.394,31.617-54.838
		C163.342,91.28,160.439,80.83,155.482,71.787z M41.697,76.431c-3.528,7.904-5.538,16.679-5.538,25.901
		c0,25.164,14.692,46.845,35.904,57.161L41.697,76.431z M100.822,107.87l-18.934,55.374c5.693,1.675,11.611,2.679,17.862,2.679
		c7.391,0,14.469-1.429,21.078-3.751c-0.157-0.268-0.223-0.402-0.357-0.714L100.822,107.87z"/>
</g>
</svg>
