<?xml version="1.0" encoding="utf-8"?>
<!-- Generator: Adobe Illustrator 17.0.0, SVG Export Plug-In . SVG Version: 6.00 Build 0)  -->
<!DOCTYPE svg PUBLIC "-//W3C//DTD SVG 1.1//EN" "http://www.w3.org/Graphics/SVG/1.1/DTD/svg11.dtd">
<svg version="1.1" xmlns="http://www.w3.org/2000/svg" xmlns:xlink="http://www.w3.org/1999/xlink" x="0px" y="0px" width="200px"
	 height="200px" viewBox="0 0 80 80" enable-background="new 0 0 80 80" xml:space="preserve">
<g id="Layer_2">
</g>
<g id="Layer_1">
	<g>
		<path fill="#FFFFFF" d="M42.3,26.9c0.3-0.3,0.6-0.5,0.8-0.8c-0.2-0.3-0.4-0.5-0.6-0.7c-0.2-0.2-0.4-0.5-0.5-0.8
			c-0.3-0.7-0.2-1.4,0.4-2c1-1,2-1.9,2.9-2.9c4.1-4.1,8.2-8.2,12.3-12.2c0.6-0.6,1.2-1.2,1.8-1.8C60.1,5,61.1,5,61.9,5.5
			C62,5.7,62.2,5.8,62.3,6c3.5,3.6,7.1,7.1,10.6,10.7c0.2,0.2,0.4,0.4,0.5,0.6c0.4,0.7,0.4,1.6-0.2,2.2c-1.8,1.8-3.7,3.6-5.5,5.4
			c-3.8,3.8-7.6,7.5-11.4,11.3c-0.1,0.1-0.2,0.2-0.3,0.3c-0.6,0.6-1.2,0.6-1.9,0.3c-0.3-0.1-0.6-0.3-0.8-0.6
			c-0.3-0.3-0.5-0.5-0.8-0.8c-0.4,0.2-0.6,0.5-0.8,0.8c0.1,0.1,0.2,0.2,0.3,0.3c1,1,2,2,3,3.1c0.8,0.8,0.7,0.7,1,1.7
			c0.1,0,0.2,0,0.3,0.1c0.5,0.1,0.9,0.3,1.2,0.6c0.6,0.6,1.2,1.3,1.9,1.9c0.4,0.4,0.7,0.8,0.7,1.4c0,0.1,0,0.1,0.1,0.2
			c0.2,0,0.3-0.1,0.3-0.2c0.6-0.6,1.6-0.7,2.3-0.1c0.1,0.1,0.2,0.2,0.4,0.3c2.2,2.3,4.5,4.5,6.7,6.8c0.2,0.2,0.4,0.4,0.5,0.6
			c0.4,0.8,0.2,1.6-0.3,2.1c-0.6,0.6-1.2,1.2-1.8,1.8c-0.1,0.1-0.3,0.3-0.4,0.4c0.4,0.4,0.8,0.8,1.2,1.2c0.3,0.3,0.5,0.6,0.5,0.9
			c0.2,0.7,0,1.3-0.5,1.8c-0.5,0.5-0.9,0.9-1.4,1.4c-0.1,0.1-0.3,0.3-0.4,0.4c0.4,0.5,0.8,0.9,1.3,1.3c0.9-0.4,1.7-0.5,2.6-0.1
			c0.7,0.3,1.2,0.7,1.5,1.3c0.7,1.2,0.5,2.8-0.5,3.8c-1,1-2.6,1.2-3.8,0.4c-1.3-0.8-1.7-2.3-1.1-4.1c-0.2-0.4-0.7-0.8-1.3-1.3
			c-0.1,0.1-0.2,0.2-0.3,0.3c-0.5,0.5-1,1-1.5,1.5c-0.2,0.2-0.5,0.4-0.8,0.5c-0.7,0.2-1.4,0.1-1.9-0.4c-0.4-0.4-0.8-0.8-1.2-1.2
			C60.1,64.8,60,65,60,65c-0.6,0.6-1.3,1.2-1.9,1.9c-0.8,0.9-2.1,0.8-2.8,0c-0.8-0.8-1.5-1.6-2.3-2.3c-1.5-1.5-2.9-2.9-4.4-4.4
			c-0.2-0.2-0.3-0.3-0.4-0.5c-0.5-0.7-0.5-1.6,0-2.2c0.1-0.1,0.1-0.1,0.2-0.2c-0.2,0-0.3-0.1-0.4-0.1c-0.4-0.1-0.8-0.3-1.1-0.6
			c-0.7-0.7-1.4-1.4-2-2c-0.3-0.3-0.5-0.8-0.6-1.2c0-0.1,0-0.3-0.1-0.4c-0.1,0-0.1-0.1-0.2-0.1c-0.4-0.1-0.8-0.3-1.1-0.6
			c-1-1-2-2.1-3.1-3.1c-0.2-0.2-0.3-0.4-0.6-0.5c-0.3,0.3-0.6,0.5-0.8,0.8c0.1,0.1,0.1,0.2,0.2,0.3c0.2,0.3,0.5,0.5,0.8,0.8
			c0.3,0.3,0.5,0.7,0.6,1.2c0.1,0.5,0,1-0.4,1.3c-0.1,0.1-0.3,0.3-0.4,0.4c-5.4,5.4-10.8,10.7-16.2,16.1c-0.2,0.2-0.5,0.4-0.7,0.7
			c-0.5,0.5-1.2,0.7-2,0.3c-0.3-0.1-0.6-0.4-0.8-0.6c-1.1-1.1-2.2-2.2-3.2-3.3c-2.4-2.5-4.9-4.9-7.3-7.4c-0.1-0.1-0.2-0.2-0.3-0.3
			c-0.1-0.2-0.2-0.3-0.3-0.5c-0.3-0.6-0.4-1.5,0.3-2.1c0.8-0.8,1.6-1.6,2.4-2.4c3.4-3.4,6.9-6.8,10.3-10.2c1.4-1.4,2.9-2.8,4.3-4.3
			c0,0,0,0,0,0c0.8-0.9,2-0.7,2.6-0.1c0.3,0.3,0.5,0.5,0.8,0.8c0.4-0.2,0.6-0.5,0.9-0.9c-0.1-0.1-0.2-0.3-0.3-0.4
			c-0.9-0.9-1.8-1.8-2.7-2.7c-0.1-0.1-0.2-0.2-0.3-0.3c-0.9-0.8-0.8-1.7-0.3-2.5c0.2-0.3,0.4-0.6,0.7-0.8c1.9-1.9,3.8-3.8,5.7-5.7
			c1-1,2-2,3-2.9c0.2-0.2,0.4-0.4,0.7-0.6c0.3-0.2,0.6-0.3,0.9-0.4c0.6-0.1,1.1,0.1,1.6,0.5c0.9,1,1.9,1.9,2.8,2.8
			C41.9,26.5,42.1,26.7,42.3,26.9z M27,40c-0.3,0-0.4,0.1-0.5,0.3c-0.8,0.8-1.7,1.7-2.5,2.5c-4.8,4.7-9.5,9.4-14.3,14.2
			c-0.1,0.1-0.2,0.2-0.3,0.3c-0.1,0.1-0.2,0.3-0.1,0.5c0.1,0.2,0.2,0.4,0.4,0.5c3.5,3.6,7.1,7.1,10.6,10.7c0.1,0.1,0.2,0.2,0.3,0.3
			c0.3,0.3,0.6,0.2,0.8,0c0.1-0.1,0.1-0.1,0.2-0.2c1.1-1.1,2.2-2.2,3.3-3.2c4.4-4.4,8.9-8.8,13.3-13.2c0.1-0.1,0.2-0.2,0.3-0.3
			c0.2-0.2,0.2-0.4,0.1-0.7c-0.1-0.1-0.2-0.3-0.3-0.4c-3.5-3.5-7-7.1-10.5-10.6c-0.1-0.1-0.2-0.3-0.4-0.4C27.2,40,27,40,27,40z
			 M72.6,18.3c-0.1-0.2-0.1-0.3-0.2-0.4c-0.1-0.2-0.3-0.3-0.4-0.4c-2.2-2.3-4.5-4.5-6.7-6.8c-1.3-1.3-2.5-2.5-3.8-3.8
			c-0.1-0.1-0.3-0.3-0.5-0.4c-0.2-0.1-0.4-0.1-0.6,0.1c-0.2,0.2-0.3,0.3-0.5,0.5c-5.5,5.4-11,10.9-16.4,16.3
			c-0.1,0.1-0.2,0.2-0.3,0.3C43,23.8,43,24,43.1,24.2c0.1,0.2,0.2,0.3,0.3,0.4c0.3,0.3,0.7,0.6,1.1,1c1.1,1.1,2.2,2.2,3.2,3.3
			c1,1.1,2,2.1,3.1,3.1c0.8,0.7,1.4,1.4,2.2,2.2c0.2,0.2,0.3,0.3,0.4,0.5c0.3,0.3,0.6,0.7,1,1c0.3,0.3,0.6,0.3,0.9,0
			c0,0,0.1-0.1,0.1-0.1c1.3-1.3,2.5-2.5,3.8-3.8c4.1-4.1,8.2-8.1,12.3-12.2c0.3-0.3,0.6-0.6,0.8-0.8C72.4,18.6,72.5,18.4,72.6,18.3z
			 M30.1,37.5c0.1,0.1,0.3,0.3,0.4,0.5c3.7,3.8,7.5,7.6,11.2,11.3c0.7,0.7,1.4,1.4,2,2c0.2,0.3,0.5,0.3,0.8,0.1
			c0.1-0.1,0.3-0.2,0.4-0.3c0.2-0.1,0.3-0.3,0.5-0.5c2.9-2.8,5.7-5.7,8.6-8.5c0.1-0.1,0.3-0.2,0.4-0.4c0.3-0.4,0.2-0.7-0.1-1.1
			c0,0-0.1-0.1-0.1-0.1c-4.4-4.5-8.8-8.9-13.3-13.4c-0.1-0.1-0.2-0.2-0.3-0.3C40.1,27.5,30.3,37.2,30.1,37.5z M53.9,53.7
			c0.1,0.1,0.2,0.3,0.4,0.4c1,1,2,2,3,3c0.1,0.1,0.2,0.2,0.3,0.3c0.4,0.4,0.4,0.9,0,1.3c-0.3,0.3-0.9,0.3-1.2,0
			c-0.2-0.2-0.3-0.3-0.5-0.5c-1-1-2-2-3-3c-0.1-0.1-0.2-0.2-0.3-0.2c-0.1,0-0.1,0.1-0.1,0.1c-1,1-2.1,2.1-3.2,3.1
			c-0.3,0.2-0.3,0.5,0,0.8c0.1,0.1,0.2,0.2,0.3,0.3c0.7,0.7,1.4,1.4,2.1,2.1c1.5,1.5,2.9,2.9,4.4,4.4c0.2,0.2,0.3,0.3,0.5,0.4
			c0.2,0.1,0.3,0.1,0.5-0.1c0.2-0.2,0.4-0.4,0.6-0.6c1.2-1.2,2.4-2.5,3.6-3.7c1.6-1.6,3.2-3.3,5-4.9c1-0.9,1.9-1.9,2.9-2.9
			c0.3-0.3,0.3-0.5,0-0.9c-0.1-0.1-0.2-0.2-0.3-0.3c-0.5-0.5-1-1-1.4-1.4c-1.7-1.7-3.4-3.5-5.1-5.2c-0.5-0.5-0.7-0.5-1.1,0
			c-1,0.9-1.9,1.9-2.8,2.8c-0.1,0.1-0.1,0.2-0.2,0.3c0.2,0.2,0.4,0.4,0.6,0.6c0.9,0.9,1.9,1.9,2.8,2.8c0.1,0.1,0.2,0.2,0.3,0.3
			c0.3,0.4,0.2,0.8-0.1,1.2c-0.3,0.3-0.8,0.4-1.2,0.1c-0.1-0.1-0.2-0.2-0.3-0.3c-1-1-2-2-3-3c-0.1-0.1-0.3-0.3-0.4-0.4
			c-0.1,0-0.1,0.1-0.2,0.1c-0.9,0.9-1.8,1.7-2.6,2.6C53.9,53.5,53.9,53.6,53.9,53.7z M48.4,55.5c0.1-0.1,0.2-0.1,0.3-0.2
			c0.1-0.1,0.2-0.2,0.4-0.3c2.9-2.9,5.8-5.8,8.7-8.6c0.1-0.1,0.2-0.2,0.3-0.3c0.3-0.3,0.3-0.5,0-0.8c-0.6-0.6-1.2-1.2-1.9-1.9
			c0,0,0,0,0,0c-0.2-0.2-0.4-0.2-0.7,0c-0.1,0.1-0.2,0.2-0.3,0.3c-2.5,2.5-5,4.9-7.4,7.4c-0.5,0.5-1,1-1.5,1.5
			c-0.4,0.4-0.4,0.6,0,1.1c0.5,0.5,1,1,1.6,1.6c0.1,0.1,0.2,0.2,0.3,0.2C48.2,55.4,48.3,55.4,48.4,55.5z M38.6,25
			c-0.2-0.2-0.4-0.4-0.6-0.6c-0.2-0.2-0.4-0.2-0.6-0.1c-0.2,0.1-0.4,0.2-0.6,0.3c-0.1,0.1-0.3,0.2-0.4,0.4c-2.2,2.2-4.4,4.4-6.7,6.6
			c-0.6,0.6-1.3,1.3-1.9,1.9c-0.2,0.2-0.4,0.4-0.5,0.7c-0.1,0.3-0.1,0.5,0.2,0.8c0.2,0.2,0.3,0.3,0.5,0.5C31.6,32,35.1,28.5,38.6,25
			z M70,65.2c-1,0-1.8,0.8-1.8,1.8c0,1,0.8,1.9,1.8,1.9c1,0,1.8-0.8,1.8-1.8C71.9,66.1,71,65.2,70,65.2z M62,64.8
			c0.1-0.1,0.2-0.1,0.2-0.2c1.8-1.8,3.6-3.6,5.4-5.4c0.1-0.1,0.1-0.2,0.2-0.2c-0.1-0.1-0.2-0.3-0.3-0.4c-0.4-0.4-0.6-0.4-1,0
			c-1.1,1.1-2.2,2.2-3.3,3.2c-0.6,0.5-1.1,1.1-1.7,1.6c-0.3,0.3-0.3,0.5,0,0.8C61.6,64.5,61.8,64.6,62,64.8z M35.3,46.3
			c0.3-0.3,0.6-0.6,0.9-0.9c-1.1-1-2.1-2.1-3.1-3.2c-0.3,0.3-0.6,0.6-0.9,0.9C33.2,44.2,34.2,45.3,35.3,46.3z M46.2,29.2
			c-0.1,0.1-0.3,0.2-0.4,0.4c-0.1,0.1-0.3,0.3-0.4,0.4c0.4,0.5,2.8,2.9,3.2,3.1c0.1-0.1,0.3-0.2,0.4-0.4c0.1-0.1,0.3-0.2,0.4-0.4
			C48.9,31.8,46.6,29.5,46.2,29.2z"/>
		<path fill="#FFFFFF" d="M19.7,26.8c0.8,0.9,1.6,1.9,2.5,2.8c0.8,0.9,1.7,1.7,2.5,2.6c0.1,0.1,0.1,0.1,0.2,0.2
			c0.1,0.2,0.1,0.4-0.1,0.5c-0.1,0.1-0.4,0.2-0.5,0.1c-0.1-0.1-0.2-0.2-0.3-0.2c-0.3-0.3-0.7-0.7-1-1c-1.6-1.6-3-3.3-4.6-5
			c-0.2-0.2-0.5-0.5-0.7-0.7c-0.2-0.2-0.3-0.3-0.2-0.6c0.1-0.2,0.3-0.4,0.5-0.4c0.2,0,0.4,0,0.5,0.1c0.3,0.1,0.6,0.2,0.8,0.3
			c2,0.8,3.9,1.6,5.9,2.4c0.1,0,0.2,0.1,0.4,0.1c-0.2-0.2-0.2-0.3-0.3-0.4c-1.1-1.1-2.2-2.1-3.3-3.2c-0.4-0.4-0.8-0.8-1.3-1.2
			c-0.1-0.1-0.2-0.3-0.3-0.4c-0.1-0.2-0.1-0.4,0.1-0.6c0.2-0.2,0.4-0.2,0.6,0c0.1,0.1,0.1,0.1,0.2,0.2c0.3,0.3,0.6,0.6,0.9,0.8
			c1.6,1.4,3.1,3,4.6,4.5c0.3,0.4,0.7,0.7,1.1,1c0.2,0.1,0.3,0.2,0.3,0.4c0.1,0.4-0.3,0.7-0.6,0.5c-2.4-0.9-4.8-1.9-7.2-2.8
			c-0.2-0.1-0.4-0.1-0.5-0.2C19.7,26.7,19.7,26.8,19.7,26.8z"/>
		<path fill="#FFFFFF" d="M15.9,27.5c0.3,0,0.5,0.1,0.8,0.3c1.3,0.9,2.6,1.9,3.7,3c0.5,0.5,1,1,1.5,1.6c0.2,0.3,0.5,0.6,0.6,0.9
			c0.1,0.3,0.2,0.6,0.3,0.8c0.2,1-0.7,2-1.7,1.9c-0.3,0-0.5-0.1-0.8-0.2c-0.3-0.1-0.5-0.2-0.8-0.3c-1.5-0.9-2.9-1.9-4-3.2
			c-0.6-0.7-1.1-1.5-1.3-2.5c-0.1-0.6,0-1.2,0.4-1.6C15,27.8,15.4,27.5,15.9,27.5z M21.9,34.3c0-0.1-0.1-0.3-0.2-0.5
			c-0.2-0.3-0.4-0.6-0.6-0.9c-1.5-1.7-3.1-3.1-5-4.3c-0.2-0.2-0.5-0.1-0.6,0.1c-0.1,0.2-0.2,0.3-0.2,0.5c0,0.2,0,0.4,0,0.6
			c0.1,0.6,0.5,1.1,0.9,1.6c1.1,1.3,2.5,2.3,3.9,3.3c0.1,0.1,0.3,0.2,0.4,0.2c0.2,0.1,0.5,0.1,0.7,0.2
			C21.6,35.1,21.9,34.8,21.9,34.3z"/>
		<path fill="#FFFFFF" d="M32.8,19.5c-0.5,0.3-1.4,1.1-1.7,1.5c0.1,0.1,0.2,0.3,0.3,0.4c0.6,0.7,1.1,1.5,1.7,2.2
			c0.1,0.1,0.2,0.2,0.2,0.3c0.1,0.2,0,0.4-0.1,0.5c-0.2,0.1-0.4,0.2-0.5,0c-0.1-0.1-0.2-0.2-0.3-0.3c-0.5-0.7-1.1-1.4-1.6-2.1
			c-0.2-0.2-0.3-0.4-0.6-0.5c-0.2,0-0.3-0.2-0.3-0.4c0.1-0.3-0.1-0.5-0.2-0.7c-0.4-0.5-0.8-1-1.1-1.6c-0.5-0.8-1.1-1.5-1.6-2.3
			c-0.1-0.1-0.1-0.2-0.2-0.3c-0.2-0.4,0-0.7,0.5-0.8c0.2,0,0.4,0,0.5,0.1c0.3,0.1,0.7,0.3,1,0.5c1.2,0.6,2.3,1.3,3.5,1.9
			c0.2,0.1,0.4,0.3,0.7,0.1c0.2-0.1,0.4,0,0.4,0.2c0.1,0.3,0.3,0.4,0.5,0.5c0.8,0.4,1.5,0.9,2.3,1.3c0.1,0.1,0.3,0.2,0.4,0.3
			c0.2,0.1,0.2,0.4,0.1,0.5c-0.1,0.2-0.3,0.3-0.5,0.2c-0.1-0.1-0.3-0.1-0.4-0.2c-0.8-0.5-1.6-0.9-2.4-1.4
			C33.1,19.6,32.9,19.5,32.8,19.5z M30.5,20.2c0.5-0.5,1-0.8,1.4-1.3c-1.2-0.6-2.3-1.3-3.4-1.9c0,0,0,0-0.1,0c0,0,0,0-0.1,0.1
			C29,18.2,29.8,19.1,30.5,20.2z"/>
		<path fill="#FFFFFF" d="M38,19.1c-0.6,0-1.2-0.2-1.6-0.5c-0.1,0-0.2-0.1-0.2-0.2c-1.8-1.3-3.2-2.9-4.4-4.8
			c-0.2-0.4-0.4-0.8-0.5-1.2c-0.1-0.4,0-0.7,0.2-1c0.2-0.3,0.5-0.4,0.8-0.4c0.3,0,0.7,0,0.9,0.1c0.7,0.2,1.3,0.6,1.9,0.8
			c0.2,0.1,0.3,0.3,0.2,0.6c-0.1,0.2-0.3,0.4-0.6,0.3c-0.1,0-0.3-0.1-0.4-0.2c-0.3-0.2-0.7-0.3-1-0.5C33,12,32.7,12,32.4,11.9
			c-0.2,0-0.4,0.1-0.3,0.3c0,0.2,0.1,0.4,0.2,0.6c0.2,0.3,0.3,0.7,0.6,1c1,1.4,2.2,2.7,3.5,3.8c0.4,0.3,0.7,0.5,1.2,0.6
			c0.9,0.2,1.3-0.3,1.1-1.2c-0.1-0.5-0.4-0.9-0.7-1.3c-0.2-0.2-0.4-0.4-0.5-0.6c-0.1-0.1-0.1-0.2-0.1-0.4c0-0.2,0.1-0.3,0.3-0.4
			c0.2-0.1,0.3,0,0.4,0.1c0.6,0.6,1.2,1.2,1.5,2.1c0.1,0.4,0.2,0.8,0.1,1.2c-0.1,0.9-0.6,1.4-1.5,1.4C38.1,19.1,38,19.1,38,19.1z"/>
		<path fill="#FFFFFF" d="M17,40c-0.6,0-1.2-0.2-1.7-0.5c-0.2-0.2-0.5-0.3-0.7-0.5c-1.3-1.1-2.4-2.3-3.4-3.7
			c-0.3-0.4-0.5-0.8-0.7-1.2c-0.2-0.3-0.2-0.6-0.2-0.9c0-0.8,0.5-1.3,1.3-1.3c0.4,0,0.7,0.1,1.1,0.3c0.5,0.2,0.9,0.4,1.4,0.7
			c0.3,0.1,0.4,0.4,0.2,0.6c-0.1,0.2-0.4,0.4-0.7,0.2c-0.4-0.2-0.8-0.4-1.2-0.6c-0.3-0.1-0.6-0.2-0.8-0.3c-0.3-0.1-0.5,0.1-0.4,0.4
			c0.1,0.2,0.1,0.4,0.2,0.6c0.2,0.3,0.4,0.7,0.6,1c0.9,1.3,2,2.5,3.2,3.5c0.2,0.2,0.5,0.4,0.7,0.5c0.4,0.2,0.8,0.4,1.3,0.3
			c0.3-0.1,0.5-0.2,0.6-0.6c0.1-0.4,0-0.7-0.2-1c-0.2-0.4-0.4-0.7-0.7-1c-0.2-0.2-0.3-0.3-0.5-0.5c-0.2-0.2-0.1-0.5,0-0.6
			c0.2-0.2,0.4-0.2,0.6,0c0.7,0.6,1.2,1.2,1.5,2.1c0.1,0.4,0.2,0.8,0.1,1.2c-0.2,0.8-0.7,1.3-1.5,1.3C17.1,40,17.1,40,17,40z"/>
		<path fill="#FFFFFF" d="M24.2,20.1c0.4,0.4,0.8,0.9,1.2,1.3c1.6,1.7,3.2,3.4,4.9,5.1c0.1,0.1,0.2,0.2,0.3,0.3
			c0.1,0.2,0.1,0.4,0,0.6c-0.2,0.2-0.4,0.2-0.6,0.1c-0.1-0.1-0.2-0.2-0.4-0.3c-0.7-0.7-1.4-1.4-2.1-2.2c-1.1-1.2-2.3-2.4-3.4-3.6
			c-0.2-0.2-0.4-0.4-0.7-0.6c-0.3,0.2-0.6,0.5-0.9,0.7c-0.1,0.1-0.3,0.2-0.4,0.1c-0.3-0.1-0.4-0.4-0.3-0.7c0.1-0.2,0.2-0.3,0.4-0.4
			c0.7-0.5,1.4-1.2,2-1.9c0.1-0.1,0.1-0.2,0.2-0.3c0.2-0.1,0.4-0.1,0.6,0c0.2,0.1,0.2,0.3,0.1,0.5c-0.1,0.1-0.2,0.3-0.3,0.4
			C24.7,19.5,24.5,19.8,24.2,20.1z"/>
		<path fill="#FFFFFF" d="M36.5,7.8c2,2.2,4,4.3,6.1,6.4c0.1,0.1,0.2,0.2,0.3,0.4c0.1,0.2,0.1,0.4-0.1,0.6c-0.2,0.2-0.4,0.2-0.6,0
			c-0.1-0.1-0.2-0.2-0.3-0.3c-0.7-0.8-1.5-1.5-2.2-2.3c-1.1-1.1-2.2-2.3-3.3-3.4c-0.2-0.2-0.4-0.4-0.7-0.6c-0.3,0.2-0.5,0.4-0.8,0.6
			c0,0-0.1,0.1-0.1,0.1c-0.2,0.1-0.4,0.1-0.6,0c-0.1-0.1-0.2-0.4-0.1-0.6c0.1-0.2,0.3-0.3,0.4-0.4c0.7-0.5,1.3-1.2,1.9-1.9
			c0.1-0.1,0.1-0.2,0.2-0.3c0.2-0.2,0.4-0.2,0.6,0c0.2,0.1,0.2,0.3,0.1,0.5c-0.1,0.1-0.2,0.3-0.3,0.4C37,7.2,36.8,7.5,36.5,7.8z"/>
		<path fill="#FFFFFF" d="M31.7,48.5c0,0.1-0.1,0.2-0.2,0.4c0,0.1-0.1,0.1-0.2,0.2c-4.3,4.3-8.6,8.5-12.9,12.8
			c-0.1,0.1-0.2,0.2-0.3,0.3c-0.3,0.3-0.6,0.3-0.9,0.2c-0.4-0.2-0.7-0.5-0.8-0.9c-0.1-0.3,0-0.6,0.2-0.8c0.1-0.1,0.3-0.3,0.4-0.4
			c4.2-4.1,8.3-8.3,12.5-12.4c0.2-0.2,0.3-0.3,0.5-0.5c0.2-0.2,0.4-0.3,0.7-0.2C31.2,47.3,31.7,47.8,31.7,48.5z"/>
		<path fill="#FFFFFF" d="M34.1,55.2c0,0.4-0.1,0.6-0.4,0.7c-0.3,0.1-0.5,0.1-0.8,0c-0.1-0.1-0.2-0.2-0.3-0.3
			c-0.9-0.9-1.7-1.7-2.6-2.6c-0.1-0.1-0.2-0.2-0.2-0.3c-0.2-0.3-0.2-0.7,0.1-0.9c0.3-0.3,0.7-0.3,1-0.1c0.1,0.1,0.2,0.2,0.3,0.2
			c0.9,0.9,1.7,1.7,2.6,2.6c0.1,0.1,0.2,0.1,0.2,0.2C34,55,34,55.2,34.1,55.2z"/>
		<path fill="#FFFFFF" d="M27.2,48.3c0,0.4-0.1,0.6-0.4,0.8c-0.3,0.1-0.5,0.1-0.8-0.1c-0.1-0.1-0.2-0.2-0.4-0.3
			c-0.8-0.8-1.6-1.6-2.4-2.5C23.1,46.2,23,46.1,23,46c-0.2-0.3-0.2-0.7,0.1-1c0.3-0.3,0.7-0.3,1-0.1c0.1,0.1,0.2,0.2,0.3,0.2
			c0.8,0.8,1.7,1.7,2.5,2.5c0.1,0.1,0.2,0.2,0.2,0.3C27.2,48.1,27.2,48.3,27.2,48.3z"/>
		<path fill="#FFFFFF" d="M17.7,57.8c-0.1,0-0.2-0.1-0.4-0.2c-0.1-0.1-0.2-0.2-0.3-0.3c-0.8-0.8-1.6-1.6-2.4-2.4
			c-0.1-0.1-0.2-0.2-0.3-0.4c-0.2-0.3-0.2-0.7,0.1-1c0.3-0.3,0.7-0.3,1-0.1c0.1,0.1,0.2,0.2,0.3,0.2c0.8,0.8,1.7,1.7,2.5,2.5
			c0.1,0.1,0.2,0.2,0.3,0.4C18.7,57.2,18.4,57.8,17.7,57.8z"/>
		<path fill="#FFFFFF" d="M22.9,52.7c0,0.6-0.6,1-1.1,0.7c-0.1-0.1-0.2-0.2-0.3-0.3c-0.9-0.9-1.7-1.8-2.6-2.6
			c-0.1-0.1-0.1-0.1-0.2-0.2c-0.2-0.3-0.2-0.8,0.1-1c0.3-0.2,0.7-0.3,1,0c0.1,0.1,0.1,0.1,0.2,0.2c0.9,0.9,1.7,1.8,2.6,2.6
			C22.8,52.2,22.9,52.4,22.9,52.7z"/>
		<path fill="#FFFFFF" d="M21,61.1c0-0.4,0.1-0.6,0.4-0.7c0.3-0.1,0.5-0.1,0.8,0.1c0.1,0.1,0.2,0.2,0.3,0.2c0.8,0.8,1.7,1.7,2.5,2.5
			c0.1,0.1,0.2,0.2,0.2,0.3c0.3,0.3,0.2,0.7-0.1,1c-0.3,0.3-0.7,0.3-1,0c-0.1,0-0.1-0.1-0.2-0.2c-0.9-0.9-1.7-1.8-2.6-2.6
			C21.1,61.5,21,61.4,21,61.1z"/>
		<path fill="#FFFFFF" d="M29.8,59.7c0,0.2-0.1,0.4-0.4,0.6c-0.3,0.1-0.5,0.1-0.8,0c-0.1-0.1-0.2-0.2-0.3-0.3
			c-0.8-0.8-1.7-1.7-2.5-2.5c-0.1-0.1-0.2-0.2-0.2-0.3c-0.2-0.3-0.2-0.7,0.1-1c0.3-0.3,0.7-0.3,1-0.1c0.1,0,0.1,0.1,0.2,0.2
			c0.9,0.9,1.8,1.8,2.7,2.8C29.7,59.2,29.8,59.4,29.8,59.7z"/>
		<path fill="#FFFFFF" d="M51.7,28.6c-0.7,0-1.3-0.6-1.3-1.2c0-0.2,0.1-0.4,0.2-0.5c0.2-0.2,0.3-0.3,0.5-0.5
			c4.2-4.2,8.4-8.3,12.6-12.5c0.1-0.1,0.1-0.1,0.2-0.2c0.3-0.3,0.7-0.3,1-0.2c0.2,0.1,0.4,0.3,0.6,0.5c0.2,0.4,0.3,0.8-0.1,1.2
			c-0.9,0.9-1.8,1.8-2.7,2.7c-3.4,3.4-6.8,6.8-10.3,10.2c-0.1,0.1-0.2,0.2-0.3,0.3C52,28.5,51.8,28.5,51.7,28.6z"/>
		<path fill="#FFFFFF" d="M63.8,25.8c0,0.3-0.1,0.5-0.4,0.7c-0.2,0.1-0.5,0.1-0.7,0c-0.1-0.1-0.2-0.2-0.3-0.3
			c-0.9-0.9-1.7-1.7-2.6-2.6c-0.1-0.1-0.2-0.2-0.3-0.3c-0.2-0.3-0.1-0.7,0.1-0.9c0.2-0.2,0.6-0.3,0.9-0.1c0.1,0.1,0.2,0.2,0.3,0.3
			c0.9,0.9,1.7,1.8,2.6,2.6C63.7,25.3,63.8,25.5,63.8,25.8z"/>
		<path fill="#FFFFFF" d="M59.4,30.2c0,0.3-0.1,0.5-0.4,0.7c-0.3,0.1-0.5,0.1-0.8,0c-0.1-0.1-0.2-0.2-0.3-0.2
			c-0.9-0.9-1.7-1.7-2.6-2.6c-0.1-0.1-0.2-0.2-0.3-0.3c-0.2-0.3-0.1-0.7,0.1-0.9c0.3-0.3,0.6-0.3,0.9-0.1c0.1,0.1,0.2,0.1,0.3,0.2
			c0.9,0.9,1.8,1.8,2.7,2.7C59.3,29.7,59.4,29.9,59.4,30.2z"/>
		<path fill="#FFFFFF" d="M52.6,23.2c0,0.7-0.6,1-1.1,0.7c-0.1-0.1-0.2-0.1-0.3-0.2c-0.9-0.9-1.8-1.8-2.7-2.7
			c-0.1-0.1-0.1-0.1-0.2-0.2c-0.2-0.3-0.2-0.7,0.1-1c0.3-0.3,0.7-0.3,1-0.1c0.1,0,0.1,0.1,0.2,0.2c0.9,0.9,1.8,1.8,2.7,2.7
			c0.1,0.1,0.1,0.1,0.2,0.2C52.5,23,52.6,23.1,52.6,23.2z"/>
		<path fill="#FFFFFF" d="M56.2,19.7c-0.2,0-0.4-0.1-0.6-0.3c-0.6-0.6-1.2-1.2-1.7-1.7c-0.3-0.3-0.6-0.6-0.9-0.9
			c-0.1-0.1-0.2-0.2-0.3-0.3c-0.2-0.3-0.2-0.7,0.1-0.9c0.2-0.3,0.6-0.3,0.9-0.1c0.1,0.1,0.2,0.1,0.3,0.2c0.9,0.9,1.8,1.8,2.7,2.7
			c0.1,0.1,0.2,0.2,0.2,0.3c0.2,0.3,0.2,0.5,0,0.8C56.7,19.6,56.5,19.7,56.2,19.7z"/>
		<path fill="#FFFFFF" d="M68.1,21.5c0,0.2-0.1,0.5-0.4,0.6c-0.3,0.2-0.5,0.2-0.8,0c-0.1-0.1-0.2-0.2-0.3-0.3
			c-0.9-0.9-1.7-1.7-2.6-2.6c-0.1-0.1-0.2-0.2-0.3-0.3c-0.2-0.3-0.1-0.7,0.1-0.9c0.2-0.2,0.6-0.3,0.9-0.1c0.1,0.1,0.2,0.2,0.3,0.3
			c0.9,0.9,1.7,1.8,2.6,2.6C68,21,68.1,21.2,68.1,21.5z"/>
		<path fill="#FFFFFF" d="M57.7,11c0.2,0,0.4,0.1,0.6,0.3c0.6,0.7,1.3,1.3,1.9,2c0.2,0.2,0.5,0.5,0.7,0.7c0.1,0.1,0.2,0.2,0.3,0.3
			c0.2,0.3,0.1,0.6-0.1,0.9c-0.2,0.2-0.6,0.3-0.9,0.1c-0.1-0.1-0.2-0.2-0.3-0.3c-0.9-0.9-1.8-1.8-2.7-2.7c-0.1-0.1-0.2-0.2-0.2-0.3
			C56.7,11.6,57,11,57.7,11z"/>
		<path fill="#FFFFFF" d="M36.7,37.2c0.2,0,0.5,0.1,0.7,0.3c0.1,0.1,0.2,0.2,0.3,0.3c1.4,1.4,2.9,2.9,4.3,4.3
			c0.1,0.1,0.2,0.2,0.3,0.3c0.1,0.1,0.2,0.2,0.2,0.3c0.2,0.4,0.2,0.8-0.1,1.1c-0.2,0.2-0.7,0.3-1.1,0.1c-0.2-0.1-0.3-0.2-0.4-0.3
			c-1.5-1.6-3.1-3.1-4.6-4.7c-0.3-0.3-0.5-0.6-0.5-0.9C35.8,37.6,36.2,37.2,36.7,37.2z"/>
		<path fill="#FFFFFF" d="M41,32.9c0.2,0,0.4,0.1,0.6,0.2c0.1,0.1,0.2,0.2,0.4,0.3c1.5,1.5,3,3,4.5,4.5c0.1,0.1,0.2,0.2,0.2,0.3
			c0.1,0.1,0.2,0.2,0.2,0.4c0.1,0.3,0.1,0.7-0.1,0.9c-0.2,0.3-0.6,0.3-1,0.1c-0.2-0.1-0.4-0.3-0.6-0.4c-0.8-0.8-1.7-1.7-2.5-2.5
			c-0.6-0.6-1.2-1.2-1.9-1.9c-0.1-0.1-0.3-0.3-0.4-0.4c-0.2-0.2-0.3-0.4-0.3-0.7C40.2,33.2,40.5,32.9,41,32.9z"/>
	</g>
</g>
</svg>
